#!OML:ASF F:\VICON\USERDATA\INSTALL\rory3\rory3.ASF
:FULLY-SPECIFIED
:DEGREES
401
root 3.36069 17.9241 23.4061 117.116 -69.6218 -97.6643
lowerback 5.33993 -0.0796404 -0.974169
upperback -6.59983 -0.061221 3.44204
thorax -10.028 0.129913 4.25745
lowerneck -5.35089 -16.3266 -12.9856
upperneck 16.3964 -26.64 21.1381
head 10.9342 -12.2692 5.53357
rclavicle 3.18055e-014 3.18055e-014
rhumerus -33.648 14.9776 -93.5216
rradius 48.3216
rwrist -33.7149
rhand 11.0074 3.02004
rfingers 7.12502
rthumb 36.0812 -23.2765
lclavicle 3.18055e-014 3.18055e-014
lhumerus -31.4579 6.46502 83.9698
lradius 35.6229
lwrist -7.10314
lhand 19.2634 15.0038
lfingers 7.12502
lthumb 43.8483 38.943
rfemur 307.908 -3.8649 -360.425
rtibia 38.2761
rfoot 147.298 -210.39
rtoes 58.9414
lfemur -24.0416 -34.5999 16.7291
ltibia 32.7393
lfoot -87.8487 -37.6751
ltoes 54.5605
402
root 3.326 17.8303 23.2329 117.964 -70.3161 -98.221
lowerback 5.08949 -0.207811 -1.45098
upperback -6.65034 -0.288305 3.40311
thorax -9.916 0.0504592 4.51303
lowerneck -5.81592 -16.3465 -12.6063
upperneck 16.2978 -26.5579 20.8954
head 10.8697 -12.1899 5.37811
rclavicle 3.37934e-014 3.49861e-014
rhumerus -34.0158 15.5531 -95.137
rradius 48.875
rwrist -31.8566
rhand 13.2286 3.34297
rfingers 7.12502
rthumb 38.1817 -22.4066
lclavicle 3.37934e-014 3.49861e-014
lhumerus -31.2046 7.96424 84.67
lradius 35.0149
lwrist -6.844
lhand 20.2783 13.8686
lfingers 7.12502
lthumb 44.7943 37.4487
rfemur 307.433 -5.14208 -357.771
rtibia 39.186
rfoot 154.035 -212.229
rtoes 58.5455
lfemur -24.586 -33.9486 16.5347
ltibia 33.5537
lfoot -87.2859 -37.8131
ltoes 54.5894
403
root 3.28934 17.7285 23.051 119.102 -70.7106 -98.9201
lowerback 4.62339 -0.112458 -1.68352
upperback -6.73779 -0.182191 3.47882
thorax -9.74605 0.116875 4.70605
lowerneck -6.24832 -16.5553 -12.5441
upperneck 16.0801 -26.6949 20.7235
head 10.8572 -12.2234 5.23938
rclavicle -1.94809e-014 5.725e-014
rhumerus -34.1496 15.3355 -96.161
rradius 49.1748
rwrist -29.8112
rhand 15.8797 3.76293
rfingers 7.12502
rthumb 40.679 -21.2546
lclavicle -1.94809e-014 5.725e-014
lhumerus -30.803 9.50437 85.5171
lradius 34.1955
lwrist -6.46949
lhand 21.5158 12.9227
lfingers 7.12502
lthumb 45.9445 36.0404
rfemur 306.797 -5.92925 -354.949
rtibia 40.1391
rfoot 162.501 -213.45
rtoes 56.1396
lfemur -25.2077 -33.393 16.7115
ltibia 34.4561
lfoot -86.994 -38.5147
ltoes 54.6975
404
root 3.25621 17.6234 22.8641 120.787 -71.2372 -100.138
lowerback 4.18414 -0.0620755 -2.06386
upperback -6.89199 -0.16082 3.37599
thorax -9.65873 0.148104 4.80423
lowerneck -6.58493 -16.6235 -12.1827
upperneck 15.8305 -26.6304 20.4329
head 10.7113 -12.1733 5.08013
rclavicle -1.27222e-014 3.49861e-014
rhumerus -34.2272 14.93 -97.4093
rradius 49.3985
rwrist -28.1307
rhand 18.7144 4.02282
rfingers 7.12502
rthumb 43.3356 -20.1034
lclavicle -1.27222e-014 3.49861e-014
lhumerus -30.5078 11.005 85.8649
lradius 33.2596
lwrist -5.94127
lhand 22.5963 12.3262
lfingers 7.12502
lthumb 46.9456 35.0163
rfemur 306.079 -6.49659 -352.407
rtibia 41.2101
rfoot 171.873 -212.92
rtoes 50.7523
lfemur -25.7852 -33.3585 16.835
ltibia 35.354
lfoot -87.1881 -38.0263
ltoes 54.4765
405
root 3.22693 17.5246 22.6901 121.205 -71.7761 -100.458
lowerback 4.29804 -0.229098 -2.16826
upperback -6.92278 -0.40167 3.31329
thorax -9.73653 0.0376398 4.82893
lowerneck -6.77712 -16.5333 -12.3677
upperneck 15.5368 -26.4641 20.7347
head 10.6912 -12.0852 5.22235
rclavicle -1.94809e-014 3.18055e-014
rhumerus -34.3657 15.6671 -98.9569
rradius 49.7994
rwrist -27.2886
rhand 20.8449 4.11789
rfingers 7.12502
rthumb 45.3214 -19.254
lclavicle -1.94809e-014 3.18055e-014
lhumerus -30.2079 12.3942 86.2014
lradius 32.4154
lwrist -4.13304
lhand 22.5793 12.6671
lfingers 7.12502
lthumb 46.9299 35.3641
rfemur 305.855 -7.58331 -349.711
rtibia 42.4134
rfoot 179.771 -210.303
rtoes 44.4194
lfemur -26.1181 -34.3145 17.0359
ltibia 36.1763
lfoot -87.9368 -35.9203
ltoes 53.8514
406
root 3.19994 17.4243 22.5169 121.278 -72.2852 -100.489
lowerback 4.49409 -0.334793 -2.13498
upperback -6.89814 -0.543526 3.27361
thorax -9.81166 -0.0331401 4.78869
lowerneck -7.05376 -16.4804 -12.5876
upperneck 15.0715 -26.2877 21.0703
head 10.6337 -11.9898 5.37472
rclavicle 4.57205e-015 -1.27222e-014
rhumerus -34.3017 16.1877 -100.045
rradius 50.178
rwrist -26.7653
rhand 23.2753 4.07035
rfingers 7.12502
rthumb 47.5732 -18.3392
lclavicle 4.57205e-015 -1.27222e-014
lhumerus -29.8903 14.5687 86.0841
lradius 31.5167
lwrist -4.08296
lhand 24.4577 11.7597
lfingers 7.12502
lthumb 48.6628 33.6573
rfemur 305.631 -8.6816 -346.938
rtibia 43.7354
rfoot 184.891 -207.333
rtoes 39.0363
lfemur -26.4268 -34.9033 17.2061
ltibia 36.9198
lfoot -88.2763 -35.0747
ltoes 53.3714
407
root 3.17781 17.3279 22.3479 121.124 -73.1829 -100.301
lowerback 4.88205 -0.437236 -2.21654
upperback -6.98044 -0.708058 3.03565
thorax -10.1197 -0.107089 4.61165
lowerneck -7.39191 -16.5104 -12.5794
upperneck 14.7632 -26.2167 21.1294
head 10.5821 -11.9359 5.37749
rclavicle 7.95139e-015 -1.43125e-014
rhumerus -34.249 16.3953 -100.884
rradius 50.5283
rwrist -26.4241
rhand 26.0183 4.23427
rfingers 7.12502
rthumb 50.0944 -16.9388
lclavicle 7.95139e-015 -1.43125e-014
lhumerus -29.7969 16.6705 85.5246
lradius 30.7616
lwrist -4.81435
lhand 27.6691 10.6094
lfingers 7.12502
lthumb 51.5996 30.9499
rfemur 305.457 -9.63828 -344.787
rtibia 45.0741
rfoot 189.311 -204.262
rtoes 31.7035
lfemur -26.9695 -35.3076 17.0357
ltibia 37.6437
lfoot -88.2239 -35.4626
ltoes 53.4003
408
root 3.14712 17.2143 22.1605 121.697 -73.7294 -100.783
lowerback 5.05462 -0.536546 -2.293
upperback -7.09373 -0.85687 3.0111
thorax -10.3357 -0.169107 4.65778
lowerneck -7.69259 -16.4871 -13.073
upperneck 14.685 -26.0937 21.2813
head 10.6847 -11.8656 5.49253
rclavicle 2.74323e-014 -1.74931e-014
rhumerus -34.3218 16.8517 -101.569
rradius 50.6636
rwrist -25.76
rhand 28.7015 4.99853
rfingers 7.12502
rthumb 52.5358 -14.7834
lclavicle 2.74323e-014 -1.74931e-014
lhumerus -29.9433 18.3749 84.9369
lradius 30.164
lwrist -4.22747
lhand 29.6819 10.3376
lfingers 7.12502
lthumb 53.4207 29.5598
rfemur 305.153 -10.1962 -342.407
rtibia 46.3652
rfoot 192.548 -201.611
rtoes 28.8635
lfemur -27.2429 -34.2181 16.8913
ltibia 38.4014
lfoot -87.0696 -35.4051
ltoes 53.353
409
root 3.11311 17.0823 21.9655 122.546 -74.0751 -101.512
lowerback 5.08934 -0.618528 -2.3166
upperback -7.1781 -0.96509 3.14439
thorax -10.4399 -0.212466 4.83556
lowerneck -8.49735 -16.4305 -12.8016
upperneck 14.7258 -25.8292 20.8515
head 10.6844 -11.6849 5.30576
rclavicle -1.70955e-014 4.13472e-014
rhumerus -34.5195 17.9175 -102.096
rradius 50.8472
rwrist -25.1938
rhand 30.5917 6.06833
rfingers 7.12502
rthumb 54.2382 -12.6074
lclavicle -1.70955e-014 4.13472e-014
lhumerus -30.1811 19.8997 84.3526
lradius 29.7878
lwrist -3.26734
lhand 30.7319 11.0613
lfingers 7.12502
lthumb 54.3637 29.6504
rfemur 304.875 -10.6044 -339.833
rtibia 47.586
rfoot 195.373 -199.142
rtoes 26.3124
lfemur -27.4238 -32.6664 16.8562
ltibia 39.2284
lfoot -85.6779 -35.2594
ltoes 53.451
410
root 3.07913 16.9496 21.7796 122.972 -74.3023 -101.775
lowerback 5.16662 -0.650068 -1.86886
upperback -7.27508 -0.967479 3.14178
thorax -10.5982 -0.246344 4.58566
lowerneck -8.93487 -16.4998 -13.0486
upperneck 14.4376 -25.7207 20.7853
head 10.6649 -11.6202 5.30118
rclavicle -4.96962e-015 -1.90833e-014
rhumerus -34.7021 19.4896 -102.655
rradius 51.3348
rwrist -25.6627
rhand 31.2555 6.29452
rfingers 7.12502
rthumb 54.832 -11.965
lclavicle -4.96962e-015 -1.90833e-014
lhumerus -30.3399 20.8944 83.8241
lradius 29.3011
lwrist -1.39111
lhand 29.3066 12.2293
lfingers 7.12502
lthumb 53.0825 31.6693
rfemur 304.693 -11.0816 -337.157
rtibia 48.8265
rfoot 198.312 -195.605
rtoes 17.1634
lfemur -27.7647 -32.0243 17.1638
ltibia 40.1494
lfoot -85.1866 -35.586
ltoes 53.5696
411
root 3.04538 16.8213 21.5963 123.716 -74.7345 -102.297
lowerback 5.1976 -0.777071 -1.60951
upperback -7.41832 -1.12398 3.08489
thorax -10.7668 -0.343393 4.40593
lowerneck -9.59309 -16.464 -12.9331
upperneck 14.3887 -25.4999 20.4981
head 10.6623 -11.4777 5.1862
rclavicle -7.55382e-015 -2.8625e-014
rhumerus -34.6284 20.5452 -102.99
rradius 51.4328
rwrist -25.97
rhand 31.8324 6.31526
rfingers 7.12502
rthumb 55.3464 -11.5699
lclavicle -7.55382e-015 -2.8625e-014
lhumerus -30.683 22.3054 82.6478
lradius 28.8148
lwrist -0.858385
lhand 30.0504 12.9709
lfingers 7.12502
lthumb 53.7522 31.9751
rfemur 304.479 -11.7823 -334.712
rtibia 50.1022
rfoot 200.013 -192.615
rtoes 11.7562
lfemur -28.1667 -31.584 17.2934
ltibia 40.9609
lfoot -84.7994 -35.7758
ltoes 53.4437
412
root 3.01146 16.6786 21.4002 124.701 -75.4511 -103.193
lowerback 5.22152 -1.01768 -1.8299
upperback -7.44528 -1.48013 3.01715
thorax -10.7771 -0.501424 4.50878
lowerneck -10.4697 -16.3861 -12.8287
upperneck 14.5885 -25.2866 20.2675
head 10.8044 -11.3102 5.07408
rclavicle 2.36554e-014 -5.56597e-014
rhumerus -34.0153 20.659 -102.833
rradius 50.9755
rwrist -25.5501
rhand 33.1912 6.45113
rfingers 7.12502
rthumb 56.5508 -10.5031
lclavicle 2.36554e-014 -5.56597e-014
lhumerus -31.0492 23.8752 81.0086
lradius 28.2938
lwrist -1.29928
lhand 30.8289 13.025
lfingers 7.12502
lthumb 54.4506 31.5537
rfemur 304.355 -12.7353 -332.563
rtibia 51.5803
rfoot 195.838 -190.647
rtoes 11.298
lfemur -28.452 -30.3814 17.047
ltibia 41.6982
lfoot -83.5611 -35.3129
ltoes 53.2032
413
root 2.97513 16.5688 21.1918 125.805 -76.1186 -104.165
lowerback 5.22776 -1.06264 -1.78237
upperback -7.55286 -1.56184 2.74126
thorax -10.9009 -0.554642 4.19841
lowerneck -10.5435 -16.4456 -13.9475
upperneck 14.3879 -25.361 21.0963
head 11.0624 -11.3392 5.475
rclavicle -1.70955e-014 -1.11319e-014
rhumerus -33.3521 19.8678 -102.137
rradius 50.6789
rwrist -25.445
rhand 34.4303 6.16495
rfingers 7.12502
rthumb 57.6398 -9.87531
lclavicle -1.70955e-014 -1.11319e-014
lhumerus -31.5329 25.3018 79.1023
lradius 27.7105
lwrist -2.58244
lhand 29.9984 13.2174
lfingers 7.12502
lthumb 53.7055 32.2526
rfemur 304.871 -11.4942 -331.504
rtibia 52.9293
rfoot 187.996 -191.832
rtoes 19.8006
lfemur -28.5515 -29.3079 16.9306
ltibia 42.0654
lfoot -82.549 -34.8279
ltoes 53.0171
